<svg width="10" height="14" viewBox="0 0 10 14" fill="none" xmlns="http://www.w3.org/2000/svg">
<path d="M4.01881 11.3269L7.71626 6.84317H5.02608L5.51583 3.0017L2.19316 7.8124H4.51838L4.01881 11.3269ZM3.22355 8.93887H1.2009C0.954552 8.93887 0.775447 8.83103 0.66358 8.61537C0.551713 8.3997 0.567291 8.18688 0.710313 7.97692L5.83505 0.557748C5.90911 0.455192 6.01082 0.381475 6.14016 0.336597C6.26951 0.291731 6.39515 0.295792 6.51708 0.348781C6.63901 0.398925 6.73716 0.482742 6.81151 0.60023C6.88587 0.717731 6.91778 0.84032 6.90725 0.967998L6.30511 5.7167H8.80596C9.07074 5.7167 9.25887 5.83529 9.37035 6.07247C9.48182 6.30963 9.45267 6.5295 9.28288 6.73207L3.67053 13.5072C3.5798 13.6082 3.47243 13.6753 3.34843 13.7086C3.22443 13.7419 3.10075 13.7262 2.97738 13.6617C2.85118 13.6 2.7603 13.5148 2.70475 13.406C2.64919 13.2973 2.62896 13.1755 2.64406 13.0406L3.22355 8.93887Z" fill="white"/>
</svg>
